General                          : ChattChitto RG - Movies [R2L]
==========
Complete name                    : Killers 2010 720p BRRip H264 [ChattChitto RG]
Format                           : MPEG-4
Format profile                   : Base Media
Codec ID                         : isom
File size                        : 2.00 GiB
Duration                         : 1h 40mn
Overall bit rate                 : 2 850 Kbps
Encoded date                     : UTC 2011-06-10 18:32:33

Video
==========
ID                               : 1
Format                           : AVC
Format/Info                      : Advanced Video Codec
Format profile                   : High@L4.1
Format settings, CABAC           : Yes
Format settings, ReFrames        : 4 frames
Codec ID                         : avc1
Codec ID/Info                    : Advanced Video Coding
Duration                         : 1h 40mn
Bit rate mode                    : Variable
Bit rate                         : 2 400 Kbps
Maximum bit rate                 : 15.7 Mbps
Width                            : 1 280 pixels
Height                           : 544 pixels
Display aspect ratio             : 2.35:1
Frame rate mode                  : Constant
Frame rate                       : 23.976 fps
Color space                      : YUV
Chroma subsampling               : 4:2:0
Bit depth                        : 8 bits
Scan type                        : Progressive
Bits/(Pixel*Frame)               : 0.144
Stream size                      : 1.68 GiB (84%)
Writing library                  : x264 core 114 r1924 08d04a4
Encoded date                     : UTC 2011-06-01 10:07:27

Audio
==========
ID                               : 2
Format                           : AC-3
Format/Info                      : Audio Coding 3
Mode extension                   : CM (complete main)
Codec ID                         : ac-3
Duration                         : 1h 40mn
Bit rate mode                    : Constant
Bit rate                         : 448 Kbps
Channel(s)                       : 6 channels
Channel positions                : Front: L C R, Side: L R, LFE
Sampling rate                    : 48.0 KHz
Bit depth                        : 16 bits
Compression mode                 : Lossy
Stream size                      : 322 MiB (16%)
Encoded date                     : UTC 2011-06-10 18:32:58

Subtitles                        : English | French


----------------------------------------------------
IMDB Link: http://www.imdb.com/title/tt1103153/
----------------------------------------------------



Screen Shots:
==============    
http://chattchitto.net/chattchittorg/movies/brrip/2011/killers/1.png 
http://chattchitto.net/chattchittorg/movies/brrip/2011/killers/2.png 
http://chattchitto.net/chattchittorg/movies/brrip/2011/killers/3.png 
http://chattchitto.net/chattchittorg/movies/brrip/2011/killers/4.png 
http://chattchitto.net/chattchittorg/movies/brrip/2011/killers/5.png 
http://chattchitto.net/chattchittorg/movies/brrip/2011/killers/6.png 
http://chattchitto.net/chattchittorg/movies/brrip/2011/killers/7.png



ScreenShots Comparison:
=========================  
http://screenshotcomparison.com/comparison/59088



Plot:
======
A vacationing woman meets her ideal man, leading to a swift marriage. Back at home, however, their idyllic life is upset when they discover their neighbors could be assassins who have been contracted to kill the couple.



Release Info:
==============
original name .... : Killers 2010 720p BRRip H264 [ChattChitto RG]
ripper.............: CHD
encoder............: Recalled2Life (R2L)
video codec........: H264/.MP4
video bitrate......: 2400
audio codec........: AAC-LC
aspect ratio.......: 2.35:1
resolution.........: 1280 x 544
genre..............: Action | Comedy | Romance
runtime............: 1h 40mn
language...........: English
rating.............: PG-13
subtitles..........: English | French
sample.............: Yes
2ch Audio..........: 2ch Audio for XBox Viewers
Compatibility .....: XBox | PS3 | WD Live



Source:
========
Killers.2010.BluRay.1080p.DTS.x264-CHD  THANKS!



Notes:
=======
ChattChitto RG Encourages Burning this Film with ConvertXtoDVD and Playing with VLC media player.
XBox 360 | PS3 | WD Live - Compatible 
Enhanced for your viewing pleasure ;)